HIERARCHY
ROOT joint_Root
{
	OFFSET 0.0 0.0 0.0
	CHANNELS 6 Xposition Yposition Zposition Zrotation Xrotation Yrotation 
	JOINT Hips
	{
		OFFSET -17.1583 93.1646 452.98
		CHANNELS 6 Xposition Yposition Zposition Zrotation Xrotation Yrotation 
		JOINT Spine
		{
			OFFSET 15.7357 0.0 0.0
			CHANNELS 6 Xposition Yposition Zposition Zrotation Xrotation Yrotation 
			JOINT Chest
			{
				OFFSET 8.98455 -0.406207 0.0
				CHANNELS 6 Xposition Yposition Zposition Zrotation Xrotation Yrotation 
				JOINT Neck
				{
					OFFSET 16.3773 0.0 0.0
					CHANNELS 6 Xposition Yposition Zposition Zrotation Xrotation Yrotation 
					JOINT Head
					{
						OFFSET 6.45672 0.0 0.0
						CHANNELS 6 Xposition Yposition Zposition Zrotation Xrotation Yrotation 
						End Site
						{
							OFFSET 0.0 0.0 0.0
						}
					}
				}
				JOINT Shoulder_L
				{
					OFFSET 12.9942 -0.242716 4.98039
					CHANNELS 6 Xposition Yposition Zposition Zrotation Xrotation Yrotation 
					JOINT UpperArm_L
					{
						OFFSET 5.34809 0.0 0.0
						CHANNELS 6 Xposition Yposition Zposition Zrotation Xrotation Yrotation 
						JOINT LowerArm_L
						{
							OFFSET 24.3286 1.87007e-05 0.0
							CHANNELS 6 Xposition Yposition Zposition Zrotation Xrotation Yrotation 
							JOINT Hand_L
							{
								OFFSET 22.2916 0.0 0.0
								CHANNELS 6 Xposition Yposition Zposition Zrotation Xrotation Yrotation 
								End Site
								{
									OFFSET 0.0 0.0 0.0
								}
							}
						}
					}
				}
				JOINT Shoulder_R
				{
					OFFSET 12.9945 -0.242716 -4.98039
					CHANNELS 6 Xposition Yposition Zposition Zrotation Xrotation Yrotation 
					JOINT UpperArm_R
					{
						OFFSET -5.34813 0.0 0.0
						CHANNELS 6 Xposition Yposition Zposition Zrotation Xrotation Yrotation 
						JOINT LowerArm_R
						{
							OFFSET -24.3289 0.000322201 0.0
							CHANNELS 6 Xposition Yposition Zposition Zrotation Xrotation Yrotation 
							JOINT Hand_R
							{
								OFFSET -22.2915 -0.000108084 0.0
								CHANNELS 6 Xposition Yposition Zposition Zrotation Xrotation Yrotation 
								End Site
								{
									OFFSET 0.0 0.0 0.0
								}
							}
						}
					}
				}
			}
		}
		JOINT UpperLeg_L
		{
			OFFSET -2.19248 -6.46944 0.0
			CHANNELS 6 Xposition Yposition Zposition Zrotation Xrotation Yrotation 
			JOINT LowerLeg_L
			{
				OFFSET 39.0811 0.0 -1.23785e-05
				CHANNELS 6 Xposition Yposition Zposition Zrotation Xrotation Yrotation 
				JOINT Foot_L
				{
					OFFSET 40.9854 0.0 -1.26872e-05
					CHANNELS 6 Xposition Yposition Zposition Zrotation Xrotation Yrotation 
					JOINT Toes_L
					{
						OFFSET 11.7543 0.0 0.0
						CHANNELS 6 Xposition Yposition Zposition Zrotation Xrotation Yrotation 
						End Site
						{
							OFFSET 0.0 0.0 0.0
						}
					}
				}
			}
		}
		JOINT UpperLeg_R
		{
			OFFSET -2.19251 6.46944 0.0
			CHANNELS 6 Xposition Yposition Zposition Zrotation Xrotation Yrotation 
			JOINT LowerLeg_R
			{
				OFFSET -39.0811 -0.00228153 -0.0401928
				CHANNELS 6 Xposition Yposition Zposition Zrotation Xrotation Yrotation 
				JOINT Foot_R
				{
					OFFSET -40.9854 0.0 0.0
					CHANNELS 6 Xposition Yposition Zposition Zrotation Xrotation Yrotation 
					JOINT Toes_R
					{
						OFFSET -11.7543 0.0 0.0
						CHANNELS 6 Xposition Yposition Zposition Zrotation Xrotation Yrotation 
						End Site
						{
							OFFSET 0.0 0.0 0.0
						}
					}
				}
			}
		}
	}
}
MOTION
Frames:	6
Frame Time:	0.0333333
0.000000 0.000000 0.000000 0.000000 0.000000 -0.000000 -2.314700 91.804700 0.149598 84.465000 -0.340766 5.566840 15.735700 0.000005 -0.000001 66.374000 86.807300 -64.054100 8.984550 -0.406207 -0.000000 -1.856530 -2.753120 4.595130 16.377300 -0.000001 -0.000001 11.350600 2.949710 0.330337 6.456720 -0.000001 -0.000000 6.378830 4.320570 5.823990 12.994200 -0.242716 4.980390 -92.373400 6.629320 -70.251000 5.348090 -0.000007 -0.000001 -70.395300 -17.442900 1.543030 24.328600 0.000019 0.000005 50.660800 -38.887300 -117.227000 22.291600 -0.000001 0.000005 65.727100 4.590600 15.086600 12.994500 -0.242716 -4.980390 87.785900 6.415060 -70.912600 -5.348130 -0.000001 -0.000004 -64.070500 4.760690 -0.666569 -24.328900 0.000322 -0.000009 29.602300 -24.495800 -126.121000 -22.291500 -0.000108 -0.000004 63.195000 5.681820 -21.469800 -2.192480 -6.469440 -0.000000 -172.584000 2.186800 -1.661090 39.081100 -0.000007 -0.000012 0.380481 -0.710852 28.158700 40.985400 -0.000006 -0.000013 2.072440 9.915960 -77.109800 11.754300 -0.000000 0.000003 0.000287 0.162647 -9.980160 -2.192510 6.469440 -0.000001 -171.119000 6.175630 -174.795000 -39.081100 -0.002282 -0.040193 0.142886 -0.478547 16.258400 -40.985400 0.000008 0.000006 4.660530 0.160015 -71.813600 -11.754300 -0.000006 -0.000006 -0.010558 0.275431 -5.382200
0.000000 0.000000 0.000000 0.000000 0.000000 -0.000000 -2.335010 91.791200 0.161339 84.444300 -0.319151 5.708310 15.735700 0.000005 -0.000001 66.661200 86.805300 -64.341800 8.984550 -0.406207 -0.000000 -1.840790 -2.724960 4.594850 16.377300 -0.000001 -0.000001 11.609300 2.933510 0.489839 6.456720 -0.000001 -0.000000 6.661860 4.387170 5.930520 12.994200 -0.242716 4.980390 -92.347700 6.573580 -70.296000 5.348090 -0.000007 -0.000001 -71.468400 -19.536300 0.564010 24.328600 0.000019 0.000005 41.154700 -32.898000 -121.856000 22.291600 -0.000001 0.000005 61.253200 4.369710 18.731700 12.994500 -0.242716 -4.980390 87.784900 6.423060 -70.926600 -5.348130 -0.000001 -0.000004 -64.933400 3.131830 -1.174820 -24.328900 0.000322 -0.000009 25.065500 -20.202300 -126.439000 -22.291500 -0.000108 -0.000004 62.911400 5.668940 -17.227100 -2.192480 -6.469440 -0.000000 -172.555000 2.214140 -1.557480 39.081100 -0.000007 -0.000012 0.381504 -0.710426 28.237100 40.985400 -0.000006 -0.000013 2.074190 9.941010 -77.151000 11.754300 -0.000000 0.000003 0.000182 0.164505 -9.904740 -2.192510 6.469440 -0.000001 -171.123000 6.312160 -174.680000 -39.081100 -0.002282 -0.040193 0.141920 -0.473501 16.314800 -40.985400 0.000008 0.000006 4.677700 0.200509 -71.795400 -11.754300 -0.000006 -0.000006 -0.010486 0.274897 -5.404030
0.000000 0.000000 0.000000 0.000000 0.000000 -0.000000 -2.350500 91.777600 0.154331 84.443200 -0.328224 5.802880 15.735700 0.000005 -0.000001 66.755700 86.802000 -64.460100 8.984550 -0.406207 -0.000000 -1.831310 -2.715730 4.547590 16.377300 -0.000001 -0.000001 11.716000 2.914990 0.639768 6.456720 -0.000001 -0.000000 6.904190 4.433690 6.175050 12.994200 -0.242716 4.980390 -92.325300 6.527170 -70.342300 5.348090 -0.000007 -0.000001 -72.102000 -21.010400 -0.095906 24.328600 0.000019 0.000005 31.386900 -26.641300 -126.315000 22.291600 -0.000001 0.000005 58.343700 4.114240 22.584000 12.994500 -0.242716 -4.980390 87.790200 6.431420 -70.992100 -5.348130 -0.000001 -0.000004 -65.667800 1.680730 -1.619670 -24.328900 0.000322 -0.000009 20.067500 -15.854400 -126.789000 -22.291500 -0.000108 -0.000004 61.815000 5.585760 -10.521000 -2.192480 -6.469440 -0.000000 -172.539000 2.198740 -1.501110 39.081100 -0.000007 -0.000012 0.383905 -0.712730 28.309600 40.985400 -0.000006 -0.000013 2.075590 9.974190 -77.176100 11.754300 -0.000000 0.000003 0.000245 0.163402 -9.949520 -2.192510 6.469440 -0.000001 -171.103000 6.238580 -174.641000 -39.081100 -0.002282 -0.040193 0.144798 -0.479736 16.430600 -40.985400 0.000008 0.000006 4.686670 0.164959 -71.856900 -11.754300 -0.000006 -0.000006 -0.010599 0.275731 -5.369920
0.000000 0.000000 0.000000 0.000000 0.000000 -0.000000 -2.361490 91.769300 0.153903 84.387800 -0.289313 5.863310 15.735700 0.000005 -0.000001 66.461700 86.783400 -64.162400 8.984550 -0.406207 -0.000000 -1.809200 -2.760590 4.554810 16.377300 -0.000001 -0.000001 11.701900 2.869430 0.773150 6.456720 -0.000001 -0.000000 7.072910 4.420540 6.370160 12.994200 -0.242716 4.980390 -92.305700 6.474940 -70.351100 5.348090 -0.000007 -0.000001 -72.239200 -21.064400 -0.153187 24.328600 0.000019 0.000005 26.770200 -23.527200 -128.354000 22.291600 -0.000001 0.000005 60.195200 3.971580 24.625600 12.994500 -0.242716 -4.980390 87.808000 6.399900 -71.048200 -5.348130 -0.000001 -0.000004 -65.957600 0.992596 -1.916820 -24.328900 0.000322 -0.000009 14.923000 -11.895200 -127.718000 -22.291500 -0.000108 -0.000004 61.552400 5.445860 -4.500770 -2.192480 -6.469440 -0.000000 -172.483000 2.293220 -1.484220 39.081100 -0.000007 -0.000012 0.385361 -0.713075 28.388700 40.985400 -0.000006 -0.000013 2.073790 9.982570 -77.233100 11.754300 -0.000000 0.000003 0.000283 0.162713 -9.977500 -2.192510 6.469440 -0.000001 -171.062000 6.320010 -174.595000 -39.081100 -0.002282 -0.040193 0.143813 -0.476074 16.441100 -40.985400 0.000008 0.000006 4.695680 0.191837 -71.843800 -11.754300 -0.000006 -0.000006 -0.010585 0.275628 -5.374130
0.000000 0.000000 0.000000 0.000000 0.000000 -0.000000 -2.364250 91.764100 0.161970 84.372200 -0.281252 5.842230 15.735700 0.000005 -0.000001 66.779800 86.781600 -64.493700 8.984550 -0.406207 -0.000000 -1.792780 -2.727780 4.529230 16.377300 -0.000001 -0.000001 11.588700 2.796320 0.886215 6.456720 -0.000001 -0.000000 7.047140 4.331730 6.550470 12.994200 -0.242716 4.980390 -92.313400 6.494510 -70.344900 5.348090 -0.000007 -0.000001 -71.954200 -19.601200 0.409371 24.328600 0.000019 0.000005 30.627900 -26.822800 -127.312000 22.291600 -0.000001 0.000005 62.168900 4.065980 23.285200 12.994500 -0.242716 -4.980390 87.817200 6.361930 -71.018100 -5.348130 -0.000001 -0.000004 -65.872600 0.954133 -1.716320 -24.328900 0.000322 -0.000009 13.339200 -10.725900 -128.128000 -22.291500 -0.000108 -0.000004 62.854400 5.411900 -3.326100 -2.192480 -6.469440 -0.000000 -172.472000 2.292610 -1.520540 39.081100 -0.000007 -0.000012 0.383987 -0.709620 28.419500 40.985400 -0.000006 -0.000013 2.075940 9.959140 -77.207900 11.754300 -0.000000 0.000003 0.000434 0.159972 -10.088800 -2.192510 6.469440 -0.000001 -171.055000 6.368300 -174.620000 -39.081100 -0.002282 -0.040193 0.144149 -0.476656 16.459200 -40.985400 0.000008 0.000006 4.697900 0.220538 -71.844600 -11.754300 -0.000006 -0.000006 -0.010483 0.274878 -5.404810
0.000000 0.000000 0.000000 0.000000 0.000000 -0.000000 -2.359110 91.767300 0.159972 84.358700 -0.250578 5.732300 15.735700 0.000005 -0.000001 67.114100 86.798300 -64.834900 8.984550 -0.406207 -0.000000 -1.809900 -2.680020 4.515840 16.377300 -0.000001 -0.000001 11.443100 2.723020 0.892093 6.456720 -0.000001 -0.000000 6.906990 4.171420 6.671960 12.994200 -0.242716 4.980390 -92.369400 6.624540 -70.268300 5.348090 -0.000007 -0.000001 -71.260200 -17.355200 1.201130 24.328600 0.000019 0.000005 38.962200 -33.133300 -124.053000 22.291600 -0.000001 0.000005 63.720700 4.317140 19.536000 12.994500 -0.242716 -4.980390 87.798500 6.385390 -70.932200 -5.348130 -0.000001 -0.000004 -65.457300 1.724560 -0.889632 -24.328900 0.000322 -0.000009 17.860900 -14.370900 -127.603000 -22.291500 -0.000108 -0.000004 63.386900 5.514180 -7.120980 -2.192480 -6.469440 -0.000000 -172.459000 2.314200 -1.641350 39.081100 -0.000007 -0.000012 0.388207 -0.717128 28.429200 40.985400 -0.000006 -0.000013 2.068850 9.951760 -77.265100 11.754300 -0.000000 0.000003 0.000190 0.164368 -9.910300 -2.192510 6.469440 -0.000001 -171.035000 6.399000 -174.717000 -39.081100 -0.002282 -0.040193 0.143791 -0.476416 16.427500 -40.985400 0.000008 0.000006 4.700270 0.239857 -71.862400 -11.754300 -0.000006 -0.000006 -0.010713 0.276558 -5.336090
